<svg version="1.1" viewBox="0 0 367 163" xmlns="http://www.w3.org/2000/svg"><g transform="translate(87.641 -529.26)"><path d="m-14.895 626.91-0.25805-58.25c-17.797 0.10975-17.886 0.13374-34.68 0.10664l2.6718-4.4084 2.0681-3.8048 15.573 3e-3 14.366 0.10362 0.55644-27.5h6.9436l0.125 12.5c0.0688 6.875 0.28185 14.069 0.3506 14.756 156.28 0.36395 159.12 0.5315 280.52 0.75092v3.4965l-0.1006 4.1001-279.9-0.1006v116.5h-7.9839z" fill="#86233d"/><path d="m45.368 682.91c-5.2659-2.6908-7.8599-5.9861-8.6774-11.023-0.54334-3.3482-0.38321-3.7266 1.5771-3.7266 1.5156 0 2.5977 0.99242 3.5435 3.25 2.1081 5.0316 5.8134 7.9142 10.912 8.4888 9.8092 1.1056 15.625-1.9338 15.625-8.1663 0-5.454-2.7238-7.1082-18.213-11.061-3.6921-0.9423-7.8251-2.7439-9.1843-4.0036-5.6832-5.267-3.7183-14.963 3.8973-19.232 5.063-2.8382 14.375-3.0886 19.48-0.52371 6.6412 3.3366 10.353 12.345 5.3787 13.054-1.6255 0.23176-2.589-0.60938-4-3.4921-2.202-4.4985-5.3278-6.2784-11.062-6.2985-5.5497-0.0195-8.9024 1.6183-10.32 5.0413-2.4694 5.9616 0.56172 8.8639 11.887 11.382 8.578 1.9075 14.363 4.6206 16.57 7.7708 2.351 3.3565 2.03 10.931-0.60532 14.282-5.1158 6.5036-18.312 8.6003-26.808 4.2592zm93.48 1.0285c-5.3335-1.891-8.3185-4.7082-11.175-10.547-2.3276-4.7575-2.7916-6.9832-2.7572-13.226 0.0626-11.362 4.9996-19.838 13.664-23.458 5.2207-2.1814 13.982-1.9898 18.683 0.40842 3.6642 1.8694 9.086 7.2629 9.086 9.0388 0 0.46282 0.27314 1.5533 0.60699 2.4233 0.47386 1.2349-0.0799 1.5818-2.5248 1.5818-2.3235 0-3.356-0.58065-4.0009-2.25-1.7746-4.5939-5.7334-7.0999-11.845-7.4982-11.309-0.73701-17.555 6.354-17.471 19.834 0.0793 12.662 5.9907 19.919 16.219 19.91 7.1908-6e-3 11.918-4.0207 14.42-12.246 0.33314-1.0951 1.5286-1.75 3.1946-1.75 2.5036 0 2.627 0.21691 2.0715 3.6402-0.8877 5.4703-5.1772 11.233-9.9871 13.416-4.633 2.1034-13.315 2.4481-18.184 0.72193zm-60.04-3.4668c0.778-2.0964 2.7374-7.1867 4.3543-11.312 1.6168-4.125 5.1326-13.232 7.8129-20.238l4.8731-12.738 3.656-0.0123c3.4012-0.0115 3.7613 0.28391 5.1671 4.2377 0.83112 2.3375 4.9234 12.945 9.094 23.572 4.1706 10.627 7.5829 19.543 7.5829 19.813s-1.4625 0.35045-3.25 0.1781c-3.037-0.29282-3.4052-0.75579-5.6183-7.0634l-2.3683-6.75h-21.487l-2.466 6.75c-2.2709 6.216-2.7152 6.7747-5.6156 7.0617l-3.1496 0.31167 1.4145-3.8117zm28.013-18.562c-1.6318-5.5451-7.0241-19.739-7.501-19.744-0.29057-3e-3 -2.0532 4.3816-3.9169 9.7441-1.8637 5.3625-3.5866 10.312-3.8287 11-0.32884 0.93395 1.6267 1.25 7.7343 1.25 8.0066 0 8.1608-0.0462 7.5123-2.25zm69.527-1.75v-24h13.54c11.444 0 14.131 0.30139 17.357 1.9473 4.7303 2.4132 6.5486 6.4095 5.8275 12.807-0.42243 3.7477-1.1982 5.2776-3.761 7.4171l-3.2288 2.6955 2.7175 2.3375c2.3025 1.9806 2.8464 3.4796 3.5619 9.8163 0.4644 4.1133 1.1621 8.2993 1.5505 9.3022 0.61054 1.5766 0.24791 1.7797-2.679 1.5l-3.3852-0.32344-0.66027-6.6766c-0.8074-8.1644-2.5483-12.02-5.8397-12.931-1.375-0.38093-6.2125-0.73746-10.75-0.79228l-8.25-0.0997v21h-6zm29.09-4.8608c2.7242-3.3672 2.4773-8.6627-0.54464-11.685-2.2803-2.2803-3.1678-2.4546-12.5-2.4546h-10.045v17.182l10.59-0.34103c9.7124-0.31276 10.748-0.53667 12.5-2.7018zm15.577 28.194c-0.36667-0.36666-0.66667-11.167-0.66667-24v-23.333h6.8322c6.8217 0 6.8339 5e-3 7.9038 3.25 0.58939 1.7875 2.9149 7.6375 5.1678 13 8.9657 21.341 12.096 29.223 12.096 30.458 0 0.86483-1.491 1.2918-4.5109 1.2918-4.4741 0-4.5328-0.0448-7.2083-5.5-2.6451-5.3933-2.7807-5.5-6.9891-5.5h-4.2917v11h-3.8333c-2.1083 0-4.1333-0.3-4.5-0.66667zm15.333-16.196c0-1.0166-5.8206-15.291-6.5204-15.991-0.26376-0.26376-0.47956 3.4204-0.47956 8.1871v8.6667h3.5c1.925 0 3.5-0.38811 3.5-0.86246zm-312.28-48.046-2.7816-0.59167 11.037-19.374c6.0701-10.656 12.231-21.568 13.691-24.25l2.654-4.8763h34.682v48.812l-4.75 0.51943c-2.6125 0.28569-6.1 0.36447-7.75 0.17508-1.65-0.1894-3.3291-0.38091-3.7312-0.42559-0.40217-0.0447-0.85217-10.319-1-22.831l-0.26877-22.75-12.859 22.5c-7.0723 12.375-12.968 22.621-13.102 22.769-0.55273 0.61048-13.251 0.86986-15.821 0.32316zm119.9-0.0763c-1.5844-0.50179-4.0049-1.948-5.3789-3.2139-4.6324-4.2677-5.2404-7.3738-5.2404-26.769v-18.032h6l4e-3 17.75c3e-3 15.976 0.20326 18.077 2.0005 21.025 2.3809 3.9055 5.4229 5.2251 12.045 5.2251 4.0205 0 5.5157-0.53258 8.1849-2.9153l3.2658-2.9153 1-37.669 5.6202-0.64444-0.31012 19.502c-0.33934 21.34-0.54489 22.115-7.1726 27.064-3.0749 2.2958-14.844 3.2329-20.018 1.5941zm46.849-0.0183c-4.3933-1.3638-9.0701-6.386-10.24-10.997-1.0004-3.9414-0.97499-4.0004 1.7266-4.0004 2.248 0 3.0118 0.68689 4.2398 3.813 1.907 4.8548 6.5421 7.187 14.284 7.187 4.9399 0 6.0548-0.37899 8.5989-2.9231 4.4683-4.4683 3.6192-9.6314-2.0677-12.572-1.6123-0.83375-6.1165-2.1859-10.009-3.0048-8.9196-1.8763-12.563-3.755-14.483-7.4673-2.1377-4.1338-1.8864-8.184 0.753-12.135 3.1471-4.7108 7.9712-6.8948 15.23-6.8948 9.5246 0 16.275 4.6367 16.782 11.527 0.17519 2.3824-0.21769 3.0302-1.9915 3.2833-1.7071 0.24358-2.536-0.46566-3.6444-3.1183-0.78905-1.8885-2.4823-4.1674-3.7628-5.0643-4.646-3.2542-16.629-1.3421-18.262 2.9141-2.3533 6.1326 1.1764 9.6159 12.196 12.036 9.7365 2.1381 14.734 4.6516 16.662 8.3796 3.2821 6.3469 0.71006 14.333-5.6852 17.653-3.8095 1.9772-15.788 2.7931-20.326 1.3844zm65.125 0.021c-4.238-1.3544-9.1484-6.5556-11.626-12.314-1.7436-4.0532-2.0955-6.5086-1.8081-12.618 0.45667-9.7103 3.5657-16.342 9.6332-20.549 5.9373-4.1164 15.953-4.8066 22.656-1.5614 4.8204 2.3335 7.9879 5.934 9.0926 10.336 0.61972 2.4692 0.43068 2.689-2.3122 2.689-2.4014 0-3.2404-0.61146-4.2787-3.1183-2.8104-6.7849-14.077-9.2594-21.053-4.6237-9.4592 6.2861-10.787 24.437-2.4525 33.531 3.0171 3.2922 3.8525 3.6353 9.7708 4.0121 6.1219 0.38982 6.6684 0.23923 10.115-2.7872 2.0984-1.8424 4.1403-4.8565 4.8144-7.1066 0.99034-3.3054 1.592-3.9072 3.9061-3.9072 2.6909 0 2.7202 0.0675 1.803 4.15-1.1112 4.9454-3.8067 8.9674-8.0214 11.968-3.4727 2.4728-15.047 3.5591-20.24 1.8996zm-151.62-21.768-0.023-21.75-9.9539 16.984v-22.484h28v49h-18l-0.023-21.75zm123.02-2.25v-24h6v48h-6zm71-1.0267v-24.027l29.458 0.55346 3.8362 7c2.1099 3.85 6.5228 12.044 9.8063 18.21s7.0738 13.14 8.4228 15.5 2.4582 4.6458 2.4648 5.0806c7e-3 0.43474-3.6731 0.65974-8.1772 0.5l-8.1892-0.29045-9.035-15.5h-14.587v17h-14zm26-2.7793c0-0.44334-2.925-5.0306-6.5-10.194l-6.5-9.3879v20.388h6.5c3.575 0 6.5-0.36273 6.5-0.80607zm-266.79-36.694 2.1863-4.5h23.601v9h-27.974zm42.48-0.49898 2.8077-4.999 19.5-2e-3v10h-25.115zm198.31-1.5415v-6.5404l16.327 0.58088 6.8525 12.5h-23.18z" fill="#363647"/></g></svg>
